<?xml version="1.0" encoding="utf-8" standalone="no"?>
<!DOCTYPE svg PUBLIC "-//W3C//DTD SVG 1.1//EN"
  "http://www.w3.org/Graphics/SVG/1.1/DTD/svg11.dtd">
<!-- Created with matplotlib (http://matplotlib.org/) -->
<svg height="208pt" version="1.1" viewBox="0 0 303 208" width="303pt" xmlns="http://www.w3.org/2000/svg" xmlns:xlink="http://www.w3.org/1999/xlink">
 <defs>
  <style type="text/css">
*{stroke-linecap:butt;stroke-linejoin:round;}
  </style>
 </defs>
 <g id="figure_1">
  <g id="patch_1">
   <path d="M 0 208.42625 
L 303.584812 208.42625 
L 303.584812 0 
L 0 0 
z
" style="fill:#ffffff;"/>
  </g>
  <g id="axes_1">
   <g id="patch_2">
    <path d="M 39.58 178.811875 
L 187.47 178.811875 
L 187.47 23.511875 
L 39.58 23.511875 
z
" style="fill:#ffffff;"/>
   </g>
   <g id="matplotlib.axis_1">
    <g id="xtick_1">
     <g id="line2d_1">
      <defs>
       <path d="M 0 0 
L 0 8 
" id="m347c88324c" style="stroke:#000000;stroke-width:0.8;"/>
      </defs>
      <g>
       <use style="stroke:#000000;stroke-width:0.8;" x="39.58" xlink:href="#m347c88324c" y="178.811875"/>
      </g>
     </g>
     <g id="text_1">
      <!-- 1998 -->
      <defs>
       <path d="M 51.34375 8.15625 
L 51.34375 0 
L 12.09375 0 
L 12.09375 8.15625 
L 27.09375 8.15625 
L 27.09375 53.25 
Q 27.09375 55.65625 27.25 58.15625 
L 15.703125 48.40625 
Q 14.953125 47.796875 14.171875 47.625 
Q 13.40625 47.453125 12.71875 47.59375 
Q 12.046875 47.75 11.515625 48.078125 
Q 11 48.40625 10.703125 48.796875 
L 7.34375 53.5 
L 29.046875 72.15625 
L 37.796875 72.15625 
L 37.796875 8.15625 
z
" id="Lato-Semibold-31"/>
       <path d="M 15.40625 50.59375 
Q 15.40625 44.203125 18.828125 40.765625 
Q 22.25 37.34375 28.40625 37.34375 
Q 31.703125 37.34375 34.21875 38.390625 
Q 36.75 39.453125 38.5 41.21875 
Q 40.25 43 41.140625 45.375 
Q 42.046875 47.75 42.046875 50.453125 
Q 42.046875 53.59375 41.0625 56.0625 
Q 40.09375 58.546875 38.3125 60.296875 
Q 36.546875 62.046875 34.09375 62.96875 
Q 31.65625 63.90625 28.75 63.90625 
Q 25.703125 63.90625 23.25 62.90625 
Q 20.796875 61.90625 19.046875 60.125 
Q 17.296875 58.34375 16.34375 55.921875 
Q 15.40625 53.5 15.40625 50.59375 
z
M 33.84375 28.25 
Q 34.84375 29.5 35.6875 30.625 
Q 36.546875 31.75 37.296875 32.90625 
Q 34.703125 31.046875 31.5 30.0625 
Q 28.296875 29.09375 24.703125 29.09375 
Q 20.796875 29.09375 17.1875 30.421875 
Q 13.59375 31.75 10.796875 34.375 
Q 8 37 6.328125 40.875 
Q 4.65625 44.75 4.65625 49.796875 
Q 4.65625 54.546875 6.421875 58.75 
Q 8.203125 62.953125 11.390625 66.078125 
Q 14.59375 69.203125 19.046875 71 
Q 23.5 72.796875 28.90625 72.796875 
Q 34.25 72.796875 38.59375 71.0625 
Q 42.953125 69.34375 46 66.21875 
Q 49.046875 63.09375 50.6875 58.765625 
Q 52.34375 54.453125 52.34375 49.25 
Q 52.34375 46 51.765625 43.09375 
Q 51.203125 40.203125 50.125 37.46875 
Q 49.046875 34.75 47.515625 32.125 
Q 46 29.5 44.09375 26.796875 
L 27.15625 2.5 
Q 26.40625 1.40625 24.921875 0.703125 
Q 23.453125 0 21.59375 0 
L 11.75 0 
z
" id="Lato-Semibold-39"/>
       <path d="M 29 7.703125 
Q 32.25 7.703125 34.796875 8.625 
Q 37.34375 9.546875 39.0625 11.21875 
Q 40.796875 12.90625 41.6875 15.203125 
Q 42.59375 17.5 42.59375 20.203125 
Q 42.59375 23.5 41.5625 25.890625 
Q 40.546875 28.296875 38.71875 29.875 
Q 36.90625 31.453125 34.40625 32.21875 
Q 31.90625 33 29 33 
Q 26.09375 33 23.59375 32.21875 
Q 21.09375 31.453125 19.265625 29.875 
Q 17.453125 28.296875 16.421875 25.890625 
Q 15.40625 23.5 15.40625 20.203125 
Q 15.40625 17.5 16.296875 15.203125 
Q 17.203125 12.90625 18.921875 11.21875 
Q 20.65625 9.546875 23.203125 8.625 
Q 25.75 7.703125 29 7.703125 
z
M 29 64.546875 
Q 26.046875 64.546875 23.8125 63.640625 
Q 21.59375 62.75 20.140625 61.25 
Q 18.703125 59.75 17.96875 57.71875 
Q 17.25 55.703125 17.25 53.453125 
Q 17.25 51.203125 17.875 49.046875 
Q 18.5 46.90625 19.875 45.21875 
Q 21.25 43.546875 23.5 42.546875 
Q 25.75 41.546875 29 41.546875 
Q 32.25 41.546875 34.5 42.546875 
Q 36.75 43.546875 38.125 45.21875 
Q 39.5 46.90625 40.125 49.046875 
Q 40.75 51.203125 40.75 53.453125 
Q 40.75 55.703125 40.015625 57.71875 
Q 39.296875 59.75 37.8125 61.25 
Q 36.34375 62.75 34.140625 63.640625 
Q 31.953125 64.546875 29 64.546875 
z
M 40.34375 37.546875 
Q 47 35.5 50.328125 31.046875 
Q 53.65625 26.59375 53.65625 20 
Q 53.65625 15.25 51.84375 11.390625 
Q 50.046875 7.546875 46.796875 4.84375 
Q 43.546875 2.15625 39.015625 0.671875 
Q 34.5 -0.796875 29 -0.796875 
Q 23.5 -0.796875 18.96875 0.671875 
Q 14.453125 2.15625 11.203125 4.84375 
Q 7.953125 7.546875 6.140625 11.390625 
Q 4.34375 15.25 4.34375 20 
Q 4.34375 26.59375 7.671875 31.046875 
Q 11 35.5 17.65625 37.546875 
Q 12.25 39.703125 9.515625 43.796875 
Q 6.796875 47.90625 6.796875 53.65625 
Q 6.796875 57.703125 8.390625 61.203125 
Q 10 64.703125 12.921875 67.265625 
Q 15.84375 69.84375 19.9375 71.3125 
Q 24.046875 72.796875 29 72.796875 
Q 33.953125 72.796875 38.015625 71.3125 
Q 42.09375 69.84375 45.015625 67.265625 
Q 47.953125 64.703125 49.578125 61.203125 
Q 51.203125 57.703125 51.203125 53.65625 
Q 51.203125 47.90625 48.46875 43.796875 
Q 45.75 39.703125 40.34375 37.546875 
z
" id="Lato-Semibold-38"/>
      </defs>
      <g transform="translate(25.66 199.191875)scale(0.12 -0.12)">
       <use xlink:href="#Lato-Semibold-31"/>
       <use x="58" xlink:href="#Lato-Semibold-39"/>
       <use x="116" xlink:href="#Lato-Semibold-39"/>
       <use x="174" xlink:href="#Lato-Semibold-38"/>
      </g>
     </g>
    </g>
    <g id="xtick_2">
     <g id="line2d_2">
      <g>
       <use style="stroke:#000000;stroke-width:0.8;" x="88.876667" xlink:href="#m347c88324c" y="178.811875"/>
      </g>
     </g>
     <g id="text_2">
      <!-- 2002 -->
      <defs>
       <path d="M 49.203125 10.15625 
Q 50.953125 10.15625 51.953125 9.125 
Q 52.953125 8.09375 52.953125 6.5 
L 52.953125 0 
L 4.25 0 
L 4.25 3.65625 
Q 4.25 4.75 4.703125 5.953125 
Q 5.15625 7.15625 6.15625 8.15625 
L 28.546875 30.59375 
Q 31.40625 33.453125 33.625 36.046875 
Q 35.84375 38.65625 37.421875 41.25 
Q 39 43.84375 39.828125 46.515625 
Q 40.65625 49.203125 40.65625 52.15625 
Q 40.65625 55 39.78125 57.171875 
Q 38.90625 59.34375 37.375 60.765625 
Q 35.84375 62.203125 33.71875 62.921875 
Q 31.59375 63.65625 29.046875 63.65625 
Q 26.59375 63.65625 24.515625 62.953125 
Q 22.453125 62.25 20.828125 61 
Q 19.203125 59.75 18.125 58.015625 
Q 17.046875 56.296875 16.546875 54.25 
Q 15.796875 52.203125 14.625 51.5 
Q 13.453125 50.796875 11.203125 51.203125 
L 5.546875 52.203125 
Q 6.296875 57.296875 8.375 61.140625 
Q 10.453125 65 13.59375 67.578125 
Q 16.75 70.15625 20.828125 71.46875 
Q 24.90625 72.796875 29.65625 72.796875 
Q 34.453125 72.796875 38.46875 71.375 
Q 42.5 69.953125 45.421875 67.328125 
Q 48.34375 64.703125 50 60.953125 
Q 51.65625 57.203125 51.65625 52.5 
Q 51.65625 48.5 50.46875 45.09375 
Q 49.296875 41.703125 47.296875 38.59375 
Q 45.296875 35.5 42.625 32.578125 
Q 39.953125 29.65625 37 26.65625 
L 19.59375 8.84375 
Q 21.75 9.453125 23.921875 9.796875 
Q 26.09375 10.15625 28.046875 10.15625 
z
" id="Lato-Semibold-32"/>
       <path d="M 55.25 36 
Q 55.25 26.546875 53.21875 19.640625 
Q 51.203125 12.75 47.640625 8.203125 
Q 44.09375 3.65625 39.296875 1.453125 
Q 34.5 -0.75 28.953125 -0.75 
Q 23.40625 -0.75 18.59375 1.453125 
Q 13.796875 3.65625 10.265625 8.203125 
Q 6.75 12.75 4.75 19.640625 
Q 2.75 26.546875 2.75 36 
Q 2.75 45.453125 4.75 52.375 
Q 6.75 59.296875 10.265625 63.8125 
Q 13.796875 68.34375 18.59375 70.5625 
Q 23.40625 72.796875 28.953125 72.796875 
Q 34.5 72.796875 39.296875 70.5625 
Q 44.09375 68.34375 47.640625 63.8125 
Q 51.203125 59.296875 53.21875 52.375 
Q 55.25 45.453125 55.25 36 
z
M 44.15625 36 
Q 44.15625 44 42.875 49.328125 
Q 41.59375 54.65625 39.5 57.84375 
Q 37.40625 61.046875 34.65625 62.390625 
Q 31.90625 63.75 28.953125 63.75 
Q 25.953125 63.75 23.21875 62.390625 
Q 20.5 61.046875 18.390625 57.84375 
Q 16.296875 54.65625 15.046875 49.328125 
Q 13.796875 44 13.796875 36 
Q 13.796875 28 15.046875 22.671875 
Q 16.296875 17.34375 18.390625 14.140625 
Q 20.5 10.953125 23.21875 9.59375 
Q 25.953125 8.25 28.953125 8.25 
Q 31.90625 8.25 34.65625 9.59375 
Q 37.40625 10.953125 39.5 14.140625 
Q 41.59375 17.34375 42.875 22.671875 
Q 44.15625 28 44.15625 36 
z
" id="Lato-Semibold-30"/>
      </defs>
      <g transform="translate(74.956667 199.191875)scale(0.12 -0.12)">
       <use xlink:href="#Lato-Semibold-32"/>
       <use x="58" xlink:href="#Lato-Semibold-30"/>
       <use x="116" xlink:href="#Lato-Semibold-30"/>
       <use x="174" xlink:href="#Lato-Semibold-32"/>
      </g>
     </g>
    </g>
    <g id="xtick_3">
     <g id="line2d_3">
      <g>
       <use style="stroke:#000000;stroke-width:0.8;" x="138.173333" xlink:href="#m347c88324c" y="178.811875"/>
      </g>
     </g>
     <g id="text_3">
      <!-- 2009 -->
      <g transform="translate(124.253333 199.191875)scale(0.12 -0.12)">
       <use xlink:href="#Lato-Semibold-32"/>
       <use x="58" xlink:href="#Lato-Semibold-30"/>
       <use x="116" xlink:href="#Lato-Semibold-30"/>
       <use x="174" xlink:href="#Lato-Semibold-39"/>
      </g>
     </g>
    </g>
    <g id="xtick_4">
     <g id="line2d_4">
      <g>
       <use style="stroke:#000000;stroke-width:0.8;" x="187.47" xlink:href="#m347c88324c" y="178.811875"/>
      </g>
     </g>
     <g id="text_4">
      <!-- 2015 -->
      <defs>
       <path d="M 19.25 45.40625 
Q 21.84375 45.953125 24.21875 46.203125 
Q 26.59375 46.453125 28.796875 46.453125 
Q 34.453125 46.453125 38.765625 44.765625 
Q 43.09375 43.09375 46.015625 40.140625 
Q 48.953125 37.203125 50.421875 33.21875 
Q 51.90625 29.25 51.90625 24.59375 
Q 51.90625 18.84375 49.90625 14.140625 
Q 47.90625 9.453125 44.34375 6.125 
Q 40.796875 2.796875 35.96875 1 
Q 31.15625 -0.796875 25.546875 -0.796875 
Q 22.25 -0.796875 19.265625 -0.140625 
Q 16.296875 0.5 13.6875 1.625 
Q 11.09375 2.75 8.890625 4.21875 
Q 6.703125 5.703125 4.953125 7.296875 
L 8.25 11.90625 
Q 9.296875 13.40625 11.046875 13.40625 
Q 12.15625 13.40625 13.453125 12.59375 
Q 14.75 11.796875 16.46875 10.875 
Q 18.203125 9.953125 20.546875 9.140625 
Q 22.90625 8.34375 26.15625 8.34375 
Q 29.703125 8.34375 32.5 9.5 
Q 35.296875 10.65625 37.21875 12.71875 
Q 39.15625 14.796875 40.15625 17.6875 
Q 41.15625 20.59375 41.15625 24.046875 
Q 41.15625 27.203125 40.21875 29.703125 
Q 39.296875 32.203125 37.46875 33.953125 
Q 35.65625 35.703125 32.90625 36.625 
Q 30.15625 37.546875 26.546875 37.546875 
Q 23.90625 37.546875 21.125 37.09375 
Q 18.34375 36.65625 15.5 35.703125 
L 8.796875 37.59375 
L 14.703125 72 
L 49.546875 72 
L 49.546875 67.34375 
Q 49.546875 65.046875 48.09375 63.59375 
Q 46.65625 62.15625 43.25 62.15625 
L 22.15625 62.15625 
z
" id="Lato-Semibold-35"/>
      </defs>
      <g transform="translate(173.55 199.191875)scale(0.12 -0.12)">
       <use xlink:href="#Lato-Semibold-32"/>
       <use x="58" xlink:href="#Lato-Semibold-30"/>
       <use x="116" xlink:href="#Lato-Semibold-31"/>
       <use x="174" xlink:href="#Lato-Semibold-35"/>
      </g>
     </g>
    </g>
   </g>
   <g id="matplotlib.axis_2">
    <g id="ytick_1">
     <g id="line2d_5">
      <defs>
       <path d="M 0 0 
L -8 0 
" id="m28103aa887" style="stroke:#000000;stroke-width:0.8;"/>
      </defs>
      <g>
       <use style="stroke:#000000;stroke-width:0.8;" x="39.58" xlink:href="#m28103aa887" y="164.462233"/>
      </g>
     </g>
     <g id="text_5">
      <!-- 270 -->
      <defs>
       <path d="M 54.34375 72 
L 54.34375 67.25 
Q 54.34375 65.15625 53.890625 63.84375 
Q 53.453125 62.546875 53 61.65625 
L 24.546875 3.75 
Q 23.796875 2.15625 22.421875 1.078125 
Q 21.046875 0 18.796875 0 
L 11.046875 0 
L 40.046875 56.953125 
Q 40.84375 58.5 41.640625 59.75 
Q 42.453125 61 43.453125 62.15625 
L 7.5 62.15625 
Q 6.5 62.15625 5.75 62.921875 
Q 5 63.703125 5 64.703125 
L 5 72 
z
" id="Lato-Semibold-37"/>
      </defs>
      <g transform="translate(7.2 168.902233)scale(0.12 -0.12)">
       <use xlink:href="#Lato-Semibold-32"/>
       <use x="58" xlink:href="#Lato-Semibold-37"/>
       <use x="116" xlink:href="#Lato-Semibold-30"/>
      </g>
     </g>
    </g>
    <g id="ytick_2">
     <g id="line2d_6">
      <g>
       <use style="stroke:#000000;stroke-width:0.8;" x="39.58" xlink:href="#m28103aa887" y="132.096072"/>
      </g>
     </g>
     <g id="text_6">
      <!-- 272 -->
      <g transform="translate(7.2 136.536072)scale(0.12 -0.12)">
       <use xlink:href="#Lato-Semibold-32"/>
       <use x="58" xlink:href="#Lato-Semibold-37"/>
       <use x="116" xlink:href="#Lato-Semibold-32"/>
      </g>
     </g>
    </g>
    <g id="ytick_3">
     <g id="line2d_7">
      <g>
       <use style="stroke:#000000;stroke-width:0.8;" x="39.58" xlink:href="#m28103aa887" y="99.729911"/>
      </g>
     </g>
     <g id="text_7">
      <!-- 274 -->
      <defs>
       <path d="M 36.046875 26.59375 
L 36.046875 52.90625 
Q 36.046875 56.046875 36.5 59.796875 
L 12.296875 26.59375 
z
M 55.34375 26.59375 
L 55.34375 20.40625 
Q 55.34375 19.5 54.765625 18.84375 
Q 54.203125 18.203125 53.046875 18.203125 
L 45.40625 18.203125 
L 45.40625 0 
L 36.046875 0 
L 36.046875 18.203125 
L 4.90625 18.203125 
Q 3.75 18.203125 2.921875 18.875 
Q 2.09375 19.546875 1.84375 20.546875 
L 0.75 26.046875 
L 35.296875 72.046875 
L 45.40625 72.046875 
L 45.40625 26.59375 
z
" id="Lato-Semibold-34"/>
      </defs>
      <g transform="translate(7.2 104.169911)scale(0.12 -0.12)">
       <use xlink:href="#Lato-Semibold-32"/>
       <use x="58" xlink:href="#Lato-Semibold-37"/>
       <use x="116" xlink:href="#Lato-Semibold-34"/>
      </g>
     </g>
    </g>
    <g id="ytick_4">
     <g id="line2d_8">
      <g>
       <use style="stroke:#000000;stroke-width:0.8;" x="39.58" xlink:href="#m28103aa887" y="67.363751"/>
      </g>
     </g>
     <g id="text_8">
      <!-- 276 -->
      <defs>
       <path d="M 28.90625 8.09375 
Q 32.15625 8.09375 34.84375 9.171875 
Q 37.546875 10.25 39.46875 12.140625 
Q 41.40625 14.046875 42.453125 16.640625 
Q 43.5 19.25 43.5 22.296875 
Q 43.5 25.59375 42.46875 28.21875 
Q 41.453125 30.84375 39.578125 32.640625 
Q 37.703125 34.453125 35.078125 35.421875 
Q 32.453125 36.40625 29.296875 36.40625 
Q 26.046875 36.40625 23.421875 35.296875 
Q 20.796875 34.203125 18.9375 32.296875 
Q 17.09375 30.40625 16.09375 27.84375 
Q 15.09375 25.296875 15.09375 22.453125 
Q 15.09375 19.25 16 16.59375 
Q 16.90625 13.953125 18.65625 12.078125 
Q 20.40625 10.203125 22.96875 9.140625 
Q 25.546875 8.09375 28.90625 8.09375 
z
M 24.953125 45.5 
Q 24.15625 44.5 23.421875 43.59375 
Q 22.703125 42.703125 22 41.796875 
Q 24.296875 43.09375 27.046875 43.84375 
Q 29.796875 44.59375 32.953125 44.59375 
Q 37.15625 44.59375 41 43.21875 
Q 44.84375 41.84375 47.765625 39.125 
Q 50.703125 36.40625 52.453125 32.375 
Q 54.203125 28.34375 54.203125 23.09375 
Q 54.203125 18.09375 52.375 13.75 
Q 50.546875 9.40625 47.25 6.171875 
Q 43.953125 2.953125 39.328125 1.078125 
Q 34.703125 -0.796875 29.09375 -0.796875 
Q 23.5 -0.796875 19 1 
Q 14.5 2.796875 11.328125 6.0625 
Q 8.15625 9.34375 6.453125 13.9375 
Q 4.75 18.546875 4.75 24.203125 
Q 4.75 29.09375 6.84375 34.4375 
Q 8.953125 39.796875 13.34375 45.703125 
L 31.046875 69.453125 
Q 31.84375 70.5 33.375 71.25 
Q 34.90625 72 36.796875 72 
L 46.296875 72 
z
" id="Lato-Semibold-36"/>
      </defs>
      <g transform="translate(7.2 71.803751)scale(0.12 -0.12)">
       <use xlink:href="#Lato-Semibold-32"/>
       <use x="58" xlink:href="#Lato-Semibold-37"/>
       <use x="116" xlink:href="#Lato-Semibold-36"/>
      </g>
     </g>
    </g>
    <g id="ytick_5">
     <g id="line2d_9">
      <g>
       <use style="stroke:#000000;stroke-width:0.8;" x="39.58" xlink:href="#m28103aa887" y="34.99759"/>
      </g>
     </g>
     <g id="text_9">
      <!-- 278 -->
      <g transform="translate(7.2 39.43759)scale(0.12 -0.12)">
       <use xlink:href="#Lato-Semibold-32"/>
       <use x="58" xlink:href="#Lato-Semibold-37"/>
       <use x="116" xlink:href="#Lato-Semibold-38"/>
      </g>
     </g>
    </g>
   </g>
   <g id="line2d_10">
    <path clip-path="url(#p356309efe7)" d="M 138.173333 158.652017 
L 162.821667 30.570966 
" style="fill:none;stroke:#87cefa;stroke-linecap:round;stroke-width:4;"/>
   </g>
   <g id="line2d_11">
    <path clip-path="url(#p356309efe7)" d="M 138.173333 48.226043 
L 162.821667 88.624056 
" style="fill:none;stroke:#ff6347;stroke-linecap:round;stroke-width:4;"/>
   </g>
   <g id="line2d_12">
    <path clip-path="url(#p356309efe7)" d="M 39.58 171.752784 
L 64.228333 155.624821 
L 88.876667 121.915618 
L 113.525 151.178737 
L 138.173333 120.197178 
L 162.821667 103.664391 
L 187.47 125.368958 
" style="fill:none;stroke:#ffd700;stroke-linecap:round;stroke-width:4;"/>
   </g>
   <g id="patch_3">
    <path d="M 39.58 178.811875 
L 39.58 23.511875 
" style="fill:none;stroke:#000000;stroke-linecap:square;stroke-linejoin:miter;stroke-width:0.8;"/>
   </g>
   <g id="patch_4">
    <path d="M 39.58 178.811875 
L 187.47 178.811875 
" style="fill:none;stroke:#000000;stroke-linecap:square;stroke-linejoin:miter;stroke-width:0.8;"/>
   </g>
   <g id="text_10">
    <!-- 12th grade reading -->
    <defs>
     <path d="M 50.90625 6.796875 
L 50.90625 0 
L 12.5 0 
L 12.5 6.796875 
L 27.84375 6.796875 
L 27.84375 55.65625 
Q 27.84375 57.84375 28 60.09375 
L 15.25 49.15625 
Q 14.59375 48.59375 13.9375 48.46875 
Q 13.296875 48.34375 12.75 48.4375 
Q 12.203125 48.546875 11.71875 48.84375 
Q 11.25 49.15625 11 49.5 
L 8.203125 53.34375 
L 29.546875 71.796875 
L 36.796875 71.796875 
L 36.796875 6.796875 
z
" id="Lato-Regular-31"/>
     <path d="M 49.34375 8.453125 
Q 50.796875 8.453125 51.640625 7.59375 
Q 52.5 6.75 52.5 5.40625 
L 52.5 0 
L 4.703125 0 
L 4.703125 3.046875 
Q 4.703125 4 5.09375 5 
Q 5.5 6 6.34375 6.84375 
L 29.296875 29.90625 
Q 32.15625 32.796875 34.5 35.46875 
Q 36.84375 38.15625 38.5 40.84375 
Q 40.15625 43.546875 41.046875 46.3125 
Q 41.953125 49.09375 41.953125 52.25 
Q 41.953125 55.40625 40.953125 57.78125 
Q 39.953125 60.15625 38.21875 61.703125 
Q 36.5 63.25 34.140625 64.015625 
Q 31.796875 64.796875 29.09375 64.796875 
Q 26.34375 64.796875 24.046875 64 
Q 21.75 63.203125 19.96875 61.765625 
Q 18.203125 60.34375 17 58.390625 
Q 15.796875 56.453125 15.296875 54.09375 
Q 14.703125 52.34375 13.671875 51.765625 
Q 12.65625 51.203125 10.796875 51.453125 
L 6.15625 52.25 
Q 6.84375 57.15625 8.875 60.921875 
Q 10.90625 64.703125 13.96875 67.25 
Q 17.046875 69.796875 21 71.125 
Q 24.953125 72.453125 29.546875 72.453125 
Q 34.09375 72.453125 38.046875 71.09375 
Q 42 69.75 44.890625 67.171875 
Q 47.796875 64.59375 49.4375 60.890625 
Q 51.09375 57.203125 51.09375 52.5 
Q 51.09375 48.5 49.890625 45.078125 
Q 48.703125 41.65625 46.640625 38.546875 
Q 44.59375 35.453125 41.921875 32.5 
Q 39.25 29.546875 36.25 26.546875 
L 17.34375 7.25 
Q 19.34375 7.796875 21.390625 8.125 
Q 23.453125 8.453125 25.34375 8.453125 
z
" id="Lato-Regular-32"/>
     <path d="M 22.59375 -0.796875 
Q 16.59375 -0.796875 13.375 2.546875 
Q 10.15625 5.90625 10.15625 12.203125 
L 10.15625 43.203125 
L 4.046875 43.203125 
Q 3.25 43.203125 2.703125 43.671875 
Q 2.15625 44.15625 2.15625 45.15625 
L 2.15625 48.703125 
L 10.453125 49.75 
L 12.5 65.40625 
Q 12.65625 66.15625 13.171875 66.625 
Q 13.703125 67.09375 14.546875 67.09375 
L 19.046875 67.09375 
L 19.046875 49.65625 
L 33.703125 49.65625 
L 33.703125 43.203125 
L 19.046875 43.203125 
L 19.046875 12.796875 
Q 19.046875 9.59375 20.59375 8.046875 
Q 22.15625 6.5 24.59375 6.5 
Q 26 6.5 27.015625 6.875 
Q 28.046875 7.25 28.796875 7.703125 
Q 29.546875 8.15625 30.0625 8.53125 
Q 30.59375 8.90625 31 8.90625 
Q 31.703125 8.90625 32.25 8.046875 
L 34.84375 3.796875 
Q 32.546875 1.65625 29.296875 0.421875 
Q 26.046875 -0.796875 22.59375 -0.796875 
z
" id="Lato-Regular-74"/>
     <path d="M 16 43.90625 
Q 19.25 47.34375 23.203125 49.390625 
Q 27.15625 51.453125 32.296875 51.453125 
Q 36.453125 51.453125 39.625 50.078125 
Q 42.796875 48.703125 44.921875 46.171875 
Q 47.046875 43.65625 48.140625 40.09375 
Q 49.25 36.546875 49.25 32.25 
L 49.25 0 
L 40.296875 0 
L 40.296875 32.25 
Q 40.296875 38 37.671875 41.171875 
Q 35.046875 44.34375 29.703125 44.34375 
Q 25.75 44.34375 22.328125 42.4375 
Q 18.90625 40.546875 16 37.296875 
L 16 0 
L 7.046875 0 
L 7.046875 73.65625 
L 16 73.65625 
z
" id="Lato-Regular-68"/>
     <path id="Lato-Regular-20"/>
     <path d="M 24.703125 24.75 
Q 27.40625 24.75 29.453125 25.5 
Q 31.5 26.25 32.890625 27.59375 
Q 34.296875 28.953125 35 30.828125 
Q 35.703125 32.703125 35.703125 34.953125 
Q 35.703125 39.59375 32.875 42.34375 
Q 30.046875 45.09375 24.703125 45.09375 
Q 19.296875 45.09375 16.46875 42.34375 
Q 13.65625 39.59375 13.65625 34.953125 
Q 13.65625 32.703125 14.375 30.828125 
Q 15.09375 28.953125 16.5 27.59375 
Q 17.90625 26.25 19.953125 25.5 
Q 22 24.75 24.703125 24.75 
z
M 40.75 -2.75 
Q 40.75 -0.90625 39.703125 0.25 
Q 38.65625 1.40625 36.875 2.046875 
Q 35.09375 2.703125 32.75 2.96875 
Q 30.40625 3.25 27.78125 3.390625 
Q 25.15625 3.546875 22.453125 3.6875 
Q 19.75 3.84375 17.25 4.203125 
Q 14.453125 2.90625 12.671875 0.921875 
Q 10.90625 -1.046875 10.90625 -3.703125 
Q 10.90625 -5.40625 11.78125 -6.875 
Q 12.65625 -8.34375 14.453125 -9.421875 
Q 16.25 -10.5 18.96875 -11.125 
Q 21.703125 -11.75 25.40625 -11.75 
Q 29 -11.75 31.84375 -11.09375 
Q 34.703125 -10.453125 36.671875 -9.25 
Q 38.65625 -8.046875 39.703125 -6.390625 
Q 40.75 -4.75 40.75 -2.75 
z
M 49.796875 48.65625 
L 49.796875 45.34375 
Q 49.796875 43.703125 47.703125 43.25 
L 41.953125 42.5 
Q 43.65625 39.203125 43.65625 35.203125 
Q 43.65625 31.5 42.21875 28.46875 
Q 40.796875 25.453125 38.296875 23.296875 
Q 35.796875 21.15625 32.296875 20 
Q 28.796875 18.84375 24.703125 18.84375 
Q 21.15625 18.84375 18 19.703125 
Q 16.40625 18.703125 15.546875 17.578125 
Q 14.703125 16.453125 14.703125 15.296875 
Q 14.703125 13.5 16.171875 12.578125 
Q 17.65625 11.65625 20.046875 11.25 
Q 22.453125 10.84375 25.515625 10.75 
Q 28.59375 10.65625 31.8125 10.421875 
Q 35.046875 10.203125 38.125 9.640625 
Q 41.203125 9.09375 43.59375 7.84375 
Q 46 6.59375 47.46875 4.390625 
Q 48.953125 2.203125 48.953125 -1.296875 
Q 48.953125 -4.546875 47.328125 -7.59375 
Q 45.703125 -10.65625 42.640625 -13.03125 
Q 39.59375 -15.40625 35.171875 -16.828125 
Q 30.75 -18.25 25.203125 -18.25 
Q 19.65625 -18.25 15.5 -17.140625 
Q 11.34375 -16.046875 8.59375 -14.1875 
Q 5.84375 -12.34375 4.46875 -9.921875 
Q 3.09375 -7.5 3.09375 -4.84375 
Q 3.09375 -1.09375 5.4375 1.5 
Q 7.796875 4.09375 11.90625 5.65625 
Q 9.65625 6.65625 8.328125 8.328125 
Q 7 10 7 12.84375 
Q 7 13.953125 7.390625 15.125 
Q 7.796875 16.296875 8.625 17.46875 
Q 9.453125 18.65625 10.640625 19.703125 
Q 11.84375 20.75 13.453125 21.546875 
Q 9.703125 23.65625 7.59375 27.125 
Q 5.5 30.59375 5.5 35.203125 
Q 5.5 38.90625 6.921875 41.921875 
Q 8.34375 44.953125 10.890625 47.078125 
Q 13.453125 49.203125 16.96875 50.34375 
Q 20.5 51.5 24.703125 51.5 
Q 28 51.5 30.84375 50.765625 
Q 33.703125 50.046875 36.046875 48.65625 
z
" id="Lato-Regular-67"/>
     <path d="M 15.5 40.5 
Q 17.90625 45.703125 21.40625 48.625 
Q 24.90625 51.546875 29.953125 51.546875 
Q 31.546875 51.546875 33.015625 51.1875 
Q 34.5 50.84375 35.65625 50.09375 
L 35 43.453125 
Q 34.703125 42.203125 33.5 42.203125 
Q 32.796875 42.203125 31.4375 42.5 
Q 30.09375 42.796875 28.40625 42.796875 
Q 26 42.796875 24.125 42.09375 
Q 22.25 41.40625 20.765625 40.03125 
Q 19.296875 38.65625 18.125 36.625 
Q 16.953125 34.59375 16 32 
L 16 0 
L 7.046875 0 
L 7.046875 50.65625 
L 12.15625 50.65625 
Q 13.59375 50.65625 14.140625 50.09375 
Q 14.703125 49.546875 14.90625 48.203125 
z
" id="Lato-Regular-72"/>
     <path d="M 34.5 22.796875 
Q 28.34375 22.59375 24.015625 21.8125 
Q 19.703125 21.046875 16.96875 19.796875 
Q 14.25 18.546875 13.015625 16.84375 
Q 11.796875 15.15625 11.796875 13.046875 
Q 11.796875 11.046875 12.4375 9.59375 
Q 13.09375 8.15625 14.21875 7.21875 
Q 15.34375 6.296875 16.875 5.875 
Q 18.40625 5.453125 20.15625 5.453125 
Q 22.5 5.453125 24.453125 5.921875 
Q 26.40625 6.40625 28.125 7.296875 
Q 29.84375 8.203125 31.421875 9.453125 
Q 33 10.703125 34.5 12.296875 
z
M 5.75 43.5 
Q 9.953125 47.546875 14.796875 49.546875 
Q 19.65625 51.546875 25.546875 51.546875 
Q 29.796875 51.546875 33.09375 50.140625 
Q 36.40625 48.75 38.65625 46.25 
Q 40.90625 43.75 42.046875 40.203125 
Q 43.203125 36.65625 43.203125 32.40625 
L 43.203125 0 
L 39.25 0 
Q 37.953125 0 37.25 0.421875 
Q 36.546875 0.84375 36.15625 2.09375 
L 35.15625 6.90625 
Q 33.15625 5.046875 31.25 3.625 
Q 29.34375 2.203125 27.25 1.21875 
Q 25.15625 0.25 22.78125 -0.265625 
Q 20.40625 -0.796875 17.5 -0.796875 
Q 14.546875 -0.796875 11.9375 0.015625 
Q 9.34375 0.84375 7.421875 2.5 
Q 5.5 4.15625 4.375 6.671875 
Q 3.25 9.203125 3.25 12.65625 
Q 3.25 15.65625 4.890625 18.421875 
Q 6.546875 21.203125 10.25 23.34375 
Q 13.953125 25.5 19.890625 26.875 
Q 25.84375 28.25 34.5 28.453125 
L 34.5 32.40625 
Q 34.5 38.296875 31.953125 41.3125 
Q 29.40625 44.34375 24.5 44.34375 
Q 21.203125 44.34375 18.96875 43.515625 
Q 16.75 42.703125 15.125 41.671875 
Q 13.5 40.65625 12.328125 39.828125 
Q 11.15625 39 10 39 
Q 9.09375 39 8.4375 39.46875 
Q 7.796875 39.953125 7.34375 40.65625 
z
" id="Lato-Regular-61"/>
     <path d="M 40.046875 38.59375 
Q 37.546875 41.953125 34.640625 43.265625 
Q 31.75 44.59375 28.15625 44.59375 
Q 21.09375 44.59375 17.296875 39.546875 
Q 13.5 34.5 13.5 25.15625 
Q 13.5 20.203125 14.34375 16.671875 
Q 15.203125 13.15625 16.84375 10.875 
Q 18.5 8.59375 20.890625 7.546875 
Q 23.296875 6.5 26.34375 6.5 
Q 30.75 6.5 34.015625 8.5 
Q 37.296875 10.5 40.046875 14.15625 
z
M 48.953125 73.65625 
L 48.953125 0 
L 43.65625 0 
Q 41.75 0 41.25 1.84375 
L 40.453125 8 
Q 37.203125 4.09375 33.046875 1.6875 
Q 28.90625 -0.703125 23.453125 -0.703125 
Q 19.09375 -0.703125 15.546875 0.96875 
Q 12 2.65625 9.5 5.90625 
Q 7 9.15625 5.640625 14 
Q 4.296875 18.84375 4.296875 25.15625 
Q 4.296875 30.75 5.796875 35.578125 
Q 7.296875 40.40625 10.09375 43.953125 
Q 12.90625 47.5 16.96875 49.515625 
Q 21.046875 51.546875 26.15625 51.546875 
Q 30.796875 51.546875 34.125 49.96875 
Q 37.453125 48.40625 40.046875 45.59375 
L 40.046875 73.65625 
z
" id="Lato-Regular-64"/>
     <path d="M 40.953125 30.84375 
Q 40.953125 33.953125 40.078125 36.515625 
Q 39.203125 39.09375 37.515625 40.96875 
Q 35.84375 42.84375 33.4375 43.875 
Q 31.046875 44.90625 28 44.90625 
Q 21.59375 44.90625 17.875 41.171875 
Q 14.15625 37.453125 13.25 30.84375 
z
M 48.15625 7.09375 
Q 46.5 5.09375 44.203125 3.625 
Q 41.90625 2.15625 39.28125 1.203125 
Q 36.65625 0.25 33.84375 -0.21875 
Q 31.046875 -0.703125 28.296875 -0.703125 
Q 23.046875 -0.703125 18.625 1.0625 
Q 14.203125 2.84375 10.96875 6.265625 
Q 7.75 9.703125 5.953125 14.75 
Q 4.15625 19.796875 4.15625 26.34375 
Q 4.15625 31.65625 5.78125 36.25 
Q 7.40625 40.84375 10.453125 44.21875 
Q 13.5 47.59375 17.890625 49.515625 
Q 22.296875 51.453125 27.796875 51.453125 
Q 32.34375 51.453125 36.21875 49.921875 
Q 40.09375 48.40625 42.921875 45.53125 
Q 45.75 42.65625 47.34375 38.421875 
Q 48.953125 34.203125 48.953125 28.796875 
Q 48.953125 26.703125 48.5 26 
Q 48.046875 25.296875 46.796875 25.296875 
L 12.953125 25.296875 
Q 13.09375 20.5 14.265625 16.953125 
Q 15.453125 13.40625 17.546875 11.03125 
Q 19.65625 8.65625 22.546875 7.46875 
Q 25.453125 6.296875 29.046875 6.296875 
Q 32.40625 6.296875 34.828125 7.0625 
Q 37.25 7.84375 39 8.75 
Q 40.75 9.65625 41.921875 10.421875 
Q 43.09375 11.203125 43.953125 11.203125 
Q 45.046875 11.203125 45.65625 10.34375 
z
" id="Lato-Regular-65"/>
     <path d="M 16.453125 50.65625 
L 16.453125 0 
L 7.546875 0 
L 7.546875 50.65625 
z
M 18.34375 66.546875 
Q 18.34375 65.25 17.8125 64.125 
Q 17.296875 63 16.421875 62.125 
Q 15.546875 61.25 14.375 60.75 
Q 13.203125 60.25 11.90625 60.25 
Q 10.59375 60.25 9.46875 60.75 
Q 8.34375 61.25 7.5 62.125 
Q 6.65625 63 6.15625 64.125 
Q 5.65625 65.25 5.65625 66.546875 
Q 5.65625 67.84375 6.15625 69.015625 
Q 6.65625 70.203125 7.5 71.078125 
Q 8.34375 71.953125 9.46875 72.453125 
Q 10.59375 72.953125 11.90625 72.953125 
Q 13.203125 72.953125 14.375 72.453125 
Q 15.546875 71.953125 16.421875 71.078125 
Q 17.296875 70.203125 17.8125 69.015625 
Q 18.34375 67.84375 18.34375 66.546875 
z
" id="Lato-Regular-69"/>
     <path d="M 15.453125 43.296875 
Q 17.09375 45.15625 18.9375 46.65625 
Q 20.796875 48.15625 22.875 49.21875 
Q 24.953125 50.296875 27.265625 50.875 
Q 29.59375 51.453125 32.296875 51.453125 
Q 36.453125 51.453125 39.625 50.078125 
Q 42.796875 48.703125 44.921875 46.171875 
Q 47.046875 43.65625 48.140625 40.09375 
Q 49.25 36.546875 49.25 32.25 
L 49.25 0 
L 40.296875 0 
L 40.296875 32.25 
Q 40.296875 38 37.671875 41.171875 
Q 35.046875 44.34375 29.703125 44.34375 
Q 25.75 44.34375 22.328125 42.4375 
Q 18.90625 40.546875 16 37.296875 
L 16 0 
L 7.046875 0 
L 7.046875 50.65625 
L 12.40625 50.65625 
Q 14.296875 50.65625 14.75 48.796875 
z
" id="Lato-Regular-6e"/>
    </defs>
    <g transform="translate(55.254375 17.511875)scale(0.14 -0.14)">
     <use xlink:href="#Lato-Regular-31"/>
     <use x="58" xlink:href="#Lato-Regular-32"/>
     <use x="116" xlink:href="#Lato-Regular-74"/>
     <use x="151.850006" xlink:href="#Lato-Regular-68"/>
     <use x="207.650009" xlink:href="#Lato-Regular-20"/>
     <use x="233.250015" xlink:href="#Lato-Regular-67"/>
     <use x="285.250015" xlink:href="#Lato-Regular-72"/>
     <use x="321.650024" xlink:href="#Lato-Regular-61"/>
     <use x="371.350037" xlink:href="#Lato-Regular-64"/>
     <use x="427.350037" xlink:href="#Lato-Regular-65"/>
     <use x="480.15004" xlink:href="#Lato-Regular-20"/>
     <use x="505.750046" xlink:href="#Lato-Regular-72"/>
     <use x="542.150055" xlink:href="#Lato-Regular-65"/>
     <use x="594.950058" xlink:href="#Lato-Regular-61"/>
     <use x="644.65007" xlink:href="#Lato-Regular-64"/>
     <use x="700.65007" xlink:href="#Lato-Regular-69"/>
     <use x="724.65007" xlink:href="#Lato-Regular-6e"/>
     <use x="780.450073" xlink:href="#Lato-Regular-67"/>
    </g>
   </g>
   <g id="legend_1">
    <g id="line2d_13">
     <path d="M 198.8645 31.411875 
L 218.8645 31.411875 
" style="fill:none;stroke:#87cefa;stroke-linecap:round;stroke-width:4;"/>
    </g>
    <g id="line2d_14"/>
    <g id="text_11">
     <!-- Connecticut -->
     <defs>
      <path d="M 58.546875 16.046875 
Q 59.5 16.046875 60.203125 15.296875 
L 64.84375 10.25 
Q 60.453125 4.953125 54.046875 2.078125 
Q 47.65625 -0.796875 38.75 -0.796875 
Q 30.84375 -0.796875 24.46875 1.921875 
Q 18.09375 4.65625 13.59375 9.53125 
Q 9.09375 14.40625 6.671875 21.15625 
Q 4.25 27.90625 4.25 36 
Q 4.25 44.09375 6.828125 50.875 
Q 9.40625 57.65625 14.078125 62.53125 
Q 18.75 67.40625 25.265625 70.09375 
Q 31.796875 72.796875 39.65625 72.796875 
Q 47.453125 72.796875 53.421875 70.265625 
Q 59.40625 67.75 63.796875 63.546875 
L 59.953125 58.09375 
Q 59.546875 57.546875 59 57.140625 
Q 58.453125 56.75 57.5 56.75 
Q 56.5 56.75 55.21875 57.671875 
Q 53.953125 58.59375 51.96875 59.71875 
Q 50 60.84375 47.015625 61.765625 
Q 44.046875 62.703125 39.59375 62.703125 
Q 34.453125 62.703125 30.140625 60.890625 
Q 25.84375 59.09375 22.75 55.640625 
Q 19.65625 52.203125 17.921875 47.25 
Q 16.203125 42.296875 16.203125 36 
Q 16.203125 29.65625 18 24.671875 
Q 19.796875 19.703125 22.9375 16.265625 
Q 26.09375 12.84375 30.34375 11.046875 
Q 34.59375 9.25 39.5 9.25 
Q 42.5 9.25 44.875 9.578125 
Q 47.25 9.90625 49.25 10.625 
Q 51.25 11.34375 53.015625 12.4375 
Q 54.796875 13.546875 56.546875 15.15625 
Q 57.546875 16.046875 58.546875 16.046875 
z
" id="Lato-Semibold-43"/>
      <path d="M 28.59375 51.796875 
Q 34.25 51.796875 38.828125 49.9375 
Q 43.40625 48.09375 46.625 44.6875 
Q 49.84375 41.296875 51.59375 36.4375 
Q 53.34375 31.59375 53.34375 25.546875 
Q 53.34375 19.5 51.59375 14.640625 
Q 49.84375 9.796875 46.625 6.375 
Q 43.40625 2.953125 38.828125 1.09375 
Q 34.25 -0.75 28.59375 -0.75 
Q 22.90625 -0.75 18.328125 1.09375 
Q 13.75 2.953125 10.5 6.375 
Q 7.25 9.796875 5.5 14.640625 
Q 3.75 19.5 3.75 25.546875 
Q 3.75 31.59375 5.5 36.4375 
Q 7.25 41.296875 10.5 44.6875 
Q 13.75 48.09375 18.328125 49.9375 
Q 22.90625 51.796875 28.59375 51.796875 
z
M 28.59375 7.65625 
Q 35.5 7.65625 38.875 12.28125 
Q 42.25 16.90625 42.25 25.5 
Q 42.25 34.09375 38.875 38.765625 
Q 35.5 43.453125 28.59375 43.453125 
Q 21.59375 43.453125 18.1875 38.765625 
Q 14.796875 34.09375 14.796875 25.5 
Q 14.796875 16.90625 18.1875 12.28125 
Q 21.59375 7.65625 28.59375 7.65625 
z
" id="Lato-Semibold-6f"/>
      <path d="M 16.59375 44.25 
Q 18.25 45.953125 20.015625 47.328125 
Q 21.796875 48.703125 23.796875 49.703125 
Q 25.796875 50.703125 28.046875 51.25 
Q 30.296875 51.796875 32.953125 51.796875 
Q 37.15625 51.796875 40.328125 50.390625 
Q 43.5 49 45.671875 46.453125 
Q 47.84375 43.90625 48.9375 40.328125 
Q 50.046875 36.75 50.046875 32.453125 
L 50.046875 0 
L 39.34375 0 
L 39.34375 32.453125 
Q 39.34375 37.59375 36.96875 40.4375 
Q 34.59375 43.296875 29.75 43.296875 
Q 26.15625 43.296875 23.078125 41.640625 
Q 20 40 17.296875 37.15625 
L 17.296875 0 
L 6.546875 0 
L 6.546875 51 
L 13.046875 51 
Q 15.25 51 15.84375 48.953125 
z
" id="Lato-Semibold-6e"/>
      <path d="M 40 31.25 
Q 40 33.953125 39.21875 36.265625 
Q 38.453125 38.59375 36.953125 40.3125 
Q 35.453125 42.046875 33.21875 43.015625 
Q 31 44 28.09375 44 
Q 22.25 44 18.890625 40.640625 
Q 15.546875 37.296875 14.65625 31.25 
z
M 14.34375 24.65625 
Q 14.546875 20.296875 15.6875 17.125 
Q 16.84375 13.953125 18.765625 11.84375 
Q 20.703125 9.75 23.375 8.71875 
Q 26.046875 7.703125 29.34375 7.703125 
Q 32.5 7.703125 34.796875 8.421875 
Q 37.09375 9.15625 38.796875 10.03125 
Q 40.5 10.90625 41.703125 11.625 
Q 42.90625 12.34375 43.90625 12.34375 
Q 45.203125 12.34375 45.90625 11.34375 
L 48.953125 7.40625 
Q 47.046875 5.15625 44.640625 3.59375 
Q 42.25 2.046875 39.546875 1.0625 
Q 36.84375 0.09375 34 -0.328125 
Q 31.15625 -0.75 28.453125 -0.75 
Q 23.15625 -0.75 18.625 1.015625 
Q 14.09375 2.796875 10.765625 6.25 
Q 7.453125 9.703125 5.578125 14.796875 
Q 3.703125 19.90625 3.703125 26.546875 
Q 3.703125 31.84375 5.375 36.4375 
Q 7.046875 41.046875 10.171875 44.4375 
Q 13.296875 47.84375 17.765625 49.8125 
Q 22.25 51.796875 27.90625 51.796875 
Q 32.59375 51.796875 36.59375 50.265625 
Q 40.59375 48.75 43.5 45.796875 
Q 46.40625 42.84375 48.03125 38.5625 
Q 49.65625 34.296875 49.65625 28.84375 
Q 49.65625 26.34375 49.09375 25.5 
Q 48.546875 24.65625 47.09375 24.65625 
z
" id="Lato-Semibold-65"/>
      <path d="M 42.59375 41 
Q 42.09375 40.34375 41.640625 40 
Q 41.203125 39.65625 40.34375 39.65625 
Q 39.5 39.65625 38.578125 40.25 
Q 37.65625 40.84375 36.375 41.5625 
Q 35.09375 42.296875 33.296875 42.890625 
Q 31.5 43.5 28.796875 43.5 
Q 25.296875 43.5 22.671875 42.25 
Q 20.046875 41 18.265625 38.671875 
Q 16.5 36.34375 15.625 33.015625 
Q 14.75 29.703125 14.75 25.546875 
Q 14.75 21.25 15.703125 17.890625 
Q 16.65625 14.546875 18.421875 12.25 
Q 20.203125 9.953125 22.71875 8.75 
Q 25.25 7.546875 28.40625 7.546875 
Q 31.5 7.546875 33.453125 8.296875 
Q 35.40625 9.046875 36.703125 9.9375 
Q 38 10.84375 38.921875 11.59375 
Q 39.84375 12.34375 40.90625 12.34375 
Q 42.203125 12.34375 42.90625 11.34375 
L 45.953125 7.40625 
Q 44.09375 5.15625 41.84375 3.59375 
Q 39.59375 2.046875 37.09375 1.0625 
Q 34.59375 0.09375 31.890625 -0.328125 
Q 29.203125 -0.75 26.453125 -0.75 
Q 21.703125 -0.75 17.578125 1.015625 
Q 13.453125 2.796875 10.375 6.171875 
Q 7.296875 9.546875 5.515625 14.421875 
Q 3.75 19.296875 3.75 25.546875 
Q 3.75 31.203125 5.34375 36.015625 
Q 6.953125 40.84375 10.015625 44.34375 
Q 13.09375 47.84375 17.640625 49.8125 
Q 22.203125 51.796875 28.15625 51.796875 
Q 33.703125 51.796875 37.921875 50 
Q 42.15625 48.203125 45.453125 44.90625 
z
" id="Lato-Semibold-63"/>
      <path d="M 22.90625 -0.796875 
Q 16.546875 -0.796875 13.125 2.765625 
Q 9.703125 6.34375 9.703125 12.84375 
L 9.703125 42.546875 
L 4.09375 42.546875 
Q 3.203125 42.546875 2.546875 43.125 
Q 1.90625 43.703125 1.90625 44.84375 
L 1.90625 49.203125 
L 10.15625 50.40625 
L 12.5 65.15625 
Q 12.75 66 13.34375 66.515625 
Q 13.953125 67.046875 14.953125 67.046875 
L 20.453125 67.046875 
L 20.453125 50.296875 
L 34.59375 50.296875 
L 34.59375 42.546875 
L 20.453125 42.546875 
L 20.453125 13.59375 
Q 20.453125 10.84375 21.796875 9.390625 
Q 23.15625 7.953125 25.40625 7.953125 
Q 26.65625 7.953125 27.546875 8.265625 
Q 28.453125 8.59375 29.09375 8.96875 
Q 29.75 9.34375 30.21875 9.671875 
Q 30.703125 10 31.15625 10 
Q 32.046875 10 32.59375 9 
L 35.796875 3.75 
Q 33.296875 1.546875 29.890625 0.375 
Q 26.5 -0.796875 22.90625 -0.796875 
z
" id="Lato-Semibold-74"/>
      <path d="M 17.75 51 
L 17.75 0 
L 7 0 
L 7 51 
z
M 19.546875 66.40625 
Q 19.546875 64.953125 18.96875 63.640625 
Q 18.40625 62.34375 17.40625 61.375 
Q 16.40625 60.40625 15.078125 59.828125 
Q 13.75 59.25 12.25 59.25 
Q 10.796875 59.25 9.515625 59.828125 
Q 8.25 60.40625 7.296875 61.375 
Q 6.34375 62.34375 5.765625 63.640625 
Q 5.203125 64.953125 5.203125 66.40625 
Q 5.203125 67.90625 5.765625 69.203125 
Q 6.34375 70.5 7.296875 71.46875 
Q 8.25 72.453125 9.515625 73.015625 
Q 10.796875 73.59375 12.25 73.59375 
Q 13.75 73.59375 15.078125 73.015625 
Q 16.40625 72.453125 17.40625 71.46875 
Q 18.40625 70.5 18.96875 69.203125 
Q 19.546875 67.90625 19.546875 66.40625 
z
" id="Lato-Semibold-69"/>
      <path d="M 49.546875 51 
L 49.546875 0 
L 43.046875 0 
Q 40.90625 0 40.296875 2.046875 
L 39.5 6.796875 
Q 37.90625 5.09375 36.125 3.6875 
Q 34.34375 2.296875 32.34375 1.296875 
Q 30.34375 0.296875 28.0625 -0.25 
Q 25.796875 -0.796875 23.203125 -0.796875 
Q 19 -0.796875 15.796875 0.59375 
Q 12.59375 2 10.421875 4.546875 
Q 8.25 7.09375 7.140625 10.671875 
Q 6.046875 14.25 6.046875 18.546875 
L 6.046875 51 
L 16.796875 51 
L 16.796875 18.546875 
Q 16.796875 13.40625 19.171875 10.546875 
Q 21.546875 7.703125 26.40625 7.703125 
Q 29.953125 7.703125 33.015625 9.328125 
Q 36.09375 10.953125 38.796875 13.796875 
L 38.796875 51 
z
" id="Lato-Semibold-75"/>
     </defs>
     <g transform="translate(226.8645 34.911875)scale(0.1 -0.1)">
      <use xlink:href="#Lato-Semibold-43"/>
      <use x="66.450012" xlink:href="#Lato-Semibold-6f"/>
      <use x="123.550018" xlink:href="#Lato-Semibold-6e"/>
      <use x="179.650024" xlink:href="#Lato-Semibold-6e"/>
      <use x="235.750031" xlink:href="#Lato-Semibold-65"/>
      <use x="288.850037" xlink:href="#Lato-Semibold-63"/>
      <use x="336.850037" xlink:href="#Lato-Semibold-74"/>
      <use x="373.40004" xlink:href="#Lato-Semibold-69"/>
      <use x="398.15004" xlink:href="#Lato-Semibold-63"/>
      <use x="446.15004" xlink:href="#Lato-Semibold-75"/>
      <use x="502.250046" xlink:href="#Lato-Semibold-74"/>
     </g>
    </g>
    <g id="line2d_15">
     <path d="M 198.8645 45.507187 
L 218.8645 45.507187 
" style="fill:none;stroke:#ff6347;stroke-linecap:round;stroke-width:4;"/>
    </g>
    <g id="line2d_16"/>
    <g id="text_12">
     <!-- Massachusetts -->
     <defs>
      <path d="M 85.15625 72 
L 85.15625 0 
L 74.84375 0 
L 74.84375 49.34375 
Q 74.84375 50.546875 74.921875 51.96875 
Q 75 53.40625 75.15625 54.84375 
L 52 12.09375 
Q 50.65625 9.453125 47.84375 9.453125 
L 46.203125 9.453125 
Q 43.34375 9.453125 42.046875 12.09375 
L 18.546875 54.953125 
Q 18.703125 53.5 18.765625 52.046875 
Q 18.84375 50.59375 18.84375 49.34375 
L 18.84375 0 
L 8.546875 0 
L 8.546875 72 
L 17.296875 72 
Q 18.84375 72 19.6875 71.71875 
Q 20.546875 71.453125 21.25 70.046875 
L 44.34375 28.203125 
Q 45.09375 26.75 45.765625 25.21875 
Q 46.453125 23.703125 47 22.09375 
Q 47.59375 23.703125 48.265625 25.265625 
Q 48.953125 26.84375 49.703125 28.296875 
L 72.453125 70.046875 
Q 73.15625 71.453125 74 71.71875 
Q 74.84375 72 76.40625 72 
z
" id="Lato-Semibold-4d"/>
      <path d="M 33.796875 22.296875 
Q 28.046875 22.09375 24.09375 21.375 
Q 20.15625 20.65625 17.703125 19.53125 
Q 15.25 18.40625 14.171875 16.84375 
Q 13.09375 15.296875 13.09375 13.453125 
Q 13.09375 11.65625 13.671875 10.375 
Q 14.25 9.09375 15.265625 8.265625 
Q 16.296875 7.453125 17.671875 7.078125 
Q 19.046875 6.703125 20.703125 6.703125 
Q 24.90625 6.703125 27.921875 8.265625 
Q 30.953125 9.84375 33.796875 12.84375 
z
M 5.296875 43.90625 
Q 13.953125 51.953125 25.90625 51.953125 
Q 30.296875 51.953125 33.71875 50.515625 
Q 37.15625 49.09375 39.46875 46.5 
Q 41.796875 43.90625 43.015625 40.328125 
Q 44.25 36.75 44.25 32.40625 
L 44.25 0 
L 39.453125 0 
Q 37.90625 0 37.09375 0.46875 
Q 36.296875 0.953125 35.75 2.40625 
L 34.703125 6.546875 
Q 32.75 4.796875 30.84375 3.421875 
Q 28.953125 2.046875 26.921875 1.09375 
Q 24.90625 0.15625 22.578125 -0.3125 
Q 20.25 -0.796875 17.453125 -0.796875 
Q 14.34375 -0.796875 11.671875 0.046875 
Q 9 0.90625 7.046875 2.625 
Q 5.09375 4.34375 3.96875 6.890625 
Q 2.84375 9.453125 2.84375 12.90625 
Q 2.84375 15.84375 4.421875 18.640625 
Q 6 21.453125 9.625 23.671875 
Q 13.25 25.90625 19.171875 27.34375 
Q 25.09375 28.796875 33.796875 29 
L 33.796875 32.40625 
Q 33.796875 37.90625 31.4375 40.59375 
Q 29.09375 43.296875 24.546875 43.296875 
Q 21.453125 43.296875 19.34375 42.515625 
Q 17.25 41.75 15.703125 40.84375 
Q 14.15625 39.953125 12.953125 39.171875 
Q 11.75 38.40625 10.40625 38.40625 
Q 9.296875 38.40625 8.515625 38.96875 
Q 7.75 39.546875 7.25 40.40625 
z
" id="Lato-Semibold-61"/>
      <path d="M 37 41.75 
Q 36.59375 41.046875 36.09375 40.75 
Q 35.59375 40.453125 34.84375 40.453125 
Q 34 40.453125 33 40.96875 
Q 32 41.5 30.640625 42.140625 
Q 29.296875 42.796875 27.46875 43.3125 
Q 25.65625 43.84375 23.203125 43.84375 
Q 21.203125 43.84375 19.578125 43.375 
Q 17.953125 42.90625 16.828125 42.03125 
Q 15.703125 41.15625 15.09375 39.96875 
Q 14.5 38.796875 14.5 37.453125 
Q 14.5 35.65625 15.59375 34.453125 
Q 16.703125 33.25 18.5 32.375 
Q 20.296875 31.5 22.59375 30.796875 
Q 24.90625 30.09375 27.296875 29.296875 
Q 29.703125 28.5 32 27.453125 
Q 34.296875 26.40625 36.09375 24.875 
Q 37.90625 23.34375 39 21.171875 
Q 40.09375 19 40.09375 15.90625 
Q 40.09375 12.296875 38.796875 9.25 
Q 37.5 6.203125 35 3.953125 
Q 32.5 1.703125 28.765625 0.453125 
Q 25.046875 -0.796875 20.25 -0.796875 
Q 17.59375 -0.796875 15.125 -0.3125 
Q 12.65625 0.15625 10.421875 0.96875 
Q 8.203125 1.796875 6.265625 2.9375 
Q 4.34375 4.09375 2.84375 5.453125 
L 5.34375 9.546875 
Q 5.796875 10.296875 6.46875 10.71875 
Q 7.15625 11.15625 8.15625 11.15625 
Q 9.203125 11.15625 10.21875 10.46875 
Q 11.25 9.796875 12.625 9 
Q 14 8.203125 15.953125 7.515625 
Q 17.90625 6.84375 20.796875 6.84375 
Q 23.203125 6.84375 24.953125 7.421875 
Q 26.703125 8 27.84375 9 
Q 29 10 29.546875 11.265625 
Q 30.09375 12.546875 30.09375 14 
Q 30.09375 15.953125 29 17.203125 
Q 27.90625 18.453125 26.078125 19.34375 
Q 24.25 20.25 21.921875 20.953125 
Q 19.59375 21.65625 17.1875 22.453125 
Q 14.796875 23.25 12.46875 24.296875 
Q 10.15625 25.34375 8.328125 26.96875 
Q 6.5 28.59375 5.390625 30.921875 
Q 4.296875 33.25 4.296875 36.59375 
Q 4.296875 39.65625 5.515625 42.40625 
Q 6.75 45.15625 9.125 47.25 
Q 11.5 49.34375 14.96875 50.5625 
Q 18.453125 51.796875 23 51.796875 
Q 28.15625 51.796875 32.34375 50.140625 
Q 36.546875 48.5 39.40625 45.65625 
z
" id="Lato-Semibold-73"/>
      <path d="M 17.296875 44.953125 
Q 20.453125 48.046875 24.203125 49.921875 
Q 27.953125 51.796875 32.953125 51.796875 
Q 37.15625 51.796875 40.328125 50.390625 
Q 43.5 49 45.671875 46.453125 
Q 47.84375 43.90625 48.9375 40.328125 
Q 50.046875 36.75 50.046875 32.453125 
L 50.046875 0 
L 39.34375 0 
L 39.34375 32.453125 
Q 39.34375 37.59375 36.96875 40.4375 
Q 34.59375 43.296875 29.75 43.296875 
Q 26.15625 43.296875 23.078125 41.640625 
Q 20 40 17.296875 37.15625 
L 17.296875 0 
L 6.546875 0 
L 6.546875 74 
L 17.296875 74 
z
" id="Lato-Semibold-68"/>
     </defs>
     <g transform="translate(226.8645 49.007187)scale(0.1 -0.1)">
      <use xlink:href="#Lato-Semibold-4d"/>
      <use x="93.700012" xlink:href="#Lato-Semibold-61"/>
      <use x="143.950012" xlink:href="#Lato-Semibold-73"/>
      <use x="187.600021" xlink:href="#Lato-Semibold-73"/>
      <use x="231.250031" xlink:href="#Lato-Semibold-61"/>
      <use x="281.500031" xlink:href="#Lato-Semibold-63"/>
      <use x="329.500031" xlink:href="#Lato-Semibold-68"/>
      <use x="385.600037" xlink:href="#Lato-Semibold-75"/>
      <use x="441.700043" xlink:href="#Lato-Semibold-73"/>
      <use x="485.350052" xlink:href="#Lato-Semibold-65"/>
      <use x="538.450058" xlink:href="#Lato-Semibold-74"/>
      <use x="575.000061" xlink:href="#Lato-Semibold-74"/>
      <use x="611.550064" xlink:href="#Lato-Semibold-73"/>
     </g>
    </g>
    <g id="line2d_17">
     <path d="M 198.8645 59.6025 
L 218.8645 59.6025 
" style="fill:none;stroke:#ffd700;stroke-linecap:round;stroke-width:4;"/>
    </g>
    <g id="line2d_18"/>
    <g id="text_13">
     <!-- National -->
     <defs>
      <path d="M 68.15625 72 
L 68.15625 0 
L 62.203125 0 
Q 60.84375 0 59.890625 0.46875 
Q 58.953125 0.953125 58.09375 2.046875 
L 18.546875 52.84375 
Q 18.703125 51.40625 18.765625 49.96875 
Q 18.84375 48.546875 18.84375 47.34375 
L 18.84375 0 
L 8.546875 0 
L 8.546875 72 
L 14.65625 72 
Q 15.40625 72 15.921875 71.921875 
Q 16.453125 71.84375 16.890625 71.640625 
Q 17.34375 71.453125 17.75 71.046875 
Q 18.15625 70.65625 18.59375 70.046875 
L 58.203125 19.203125 
Q 58.046875 20.75 57.96875 22.25 
Q 57.90625 23.75 57.90625 25.046875 
L 57.90625 72 
z
" id="Lato-Semibold-4e"/>
      <path d="M 17.5 74 
L 17.5 0 
L 6.75 0 
L 6.75 74 
z
" id="Lato-Semibold-6c"/>
     </defs>
     <g transform="translate(226.8645 63.1025)scale(0.1 -0.1)">
      <use xlink:href="#Lato-Semibold-4e"/>
      <use x="76.750015" xlink:href="#Lato-Semibold-61"/>
      <use x="127.000015" xlink:href="#Lato-Semibold-74"/>
      <use x="163.550018" xlink:href="#Lato-Semibold-69"/>
      <use x="188.300018" xlink:href="#Lato-Semibold-6f"/>
      <use x="245.400024" xlink:href="#Lato-Semibold-6e"/>
      <use x="301.500031" xlink:href="#Lato-Semibold-61"/>
      <use x="351.750031" xlink:href="#Lato-Semibold-6c"/>
     </g>
    </g>
   </g>
  </g>
 </g>
 <defs>
  <clipPath id="p356309efe7">
   <rect height="155.3" width="147.89" x="39.58" y="23.511875"/>
  </clipPath>
 </defs>
</svg>
